<mxfile host="app.diagrams.net" modified="2024-01-10T17:00:04.084Z" agent="Mozilla/5.0 (Windows NT 10.0; Win64; x64) AppleWebKit/537.36 (KHTML, like Gecko) Chrome/120.0.0.0 Safari/537.36" etag="UchZENUd9etoW2UMpTQo" version="22.1.18" type="github">
  <diagram id="C5RBs43oDa-KdzZeNtuy" name="Page-1">
    <mxGraphModel dx="662" dy="1519" grid="1" gridSize="10" guides="1" tooltips="1" connect="1" arrows="1" fold="1" page="1" pageScale="1" pageWidth="827" pageHeight="1169" math="0" shadow="0">
      <root>
        <mxCell id="WIyWlLk6GJQsqaUBKTNV-0" />
        <mxCell id="WIyWlLk6GJQsqaUBKTNV-1" parent="WIyWlLk6GJQsqaUBKTNV-0" />
        <mxCell id="cFePoN2Un4Ct-oxJlfI2-46" value="" style="edgeStyle=orthogonalEdgeStyle;rounded=0;orthogonalLoop=1;jettySize=auto;html=1;" edge="1" parent="WIyWlLk6GJQsqaUBKTNV-1" source="WIyWlLk6GJQsqaUBKTNV-3" target="cFePoN2Un4Ct-oxJlfI2-26">
          <mxGeometry relative="1" as="geometry" />
        </mxCell>
        <mxCell id="WIyWlLk6GJQsqaUBKTNV-3" value="Calculation of fluorescence QY from high content spectroscopy data" style="rounded=1;whiteSpace=wrap;html=1;fontSize=12;glass=0;strokeWidth=1;shadow=0;fontStyle=1" parent="WIyWlLk6GJQsqaUBKTNV-1" vertex="1">
          <mxGeometry x="162.5" y="-10" width="120" height="70" as="geometry" />
        </mxCell>
        <mxCell id="cFePoN2Un4Ct-oxJlfI2-31" value="" style="edgeStyle=orthogonalEdgeStyle;rounded=0;orthogonalLoop=1;jettySize=auto;html=1;" edge="1" parent="WIyWlLk6GJQsqaUBKTNV-1" source="cFePoN2Un4Ct-oxJlfI2-0" target="cFePoN2Un4Ct-oxJlfI2-6">
          <mxGeometry relative="1" as="geometry" />
        </mxCell>
        <mxCell id="cFePoN2Un4Ct-oxJlfI2-0" value="Import and wrangling of spectroscopic data" style="rounded=1;whiteSpace=wrap;html=1;absoluteArcSize=1;arcSize=14;strokeWidth=2;" vertex="1" parent="WIyWlLk6GJQsqaUBKTNV-1">
          <mxGeometry x="172" y="170" width="100" height="100" as="geometry" />
        </mxCell>
        <mxCell id="cFePoN2Un4Ct-oxJlfI2-44" value="" style="edgeStyle=orthogonalEdgeStyle;rounded=0;orthogonalLoop=1;jettySize=auto;html=1;" edge="1" parent="WIyWlLk6GJQsqaUBKTNV-1" source="cFePoN2Un4Ct-oxJlfI2-3" target="cFePoN2Un4Ct-oxJlfI2-0">
          <mxGeometry relative="1" as="geometry" />
        </mxCell>
        <mxCell id="cFePoN2Un4Ct-oxJlfI2-3" value="absorbance data&lt;br&gt;*.csv" style="shape=parallelogram;html=1;strokeWidth=2;perimeter=parallelogramPerimeter;whiteSpace=wrap;rounded=1;arcSize=12;size=0.23;" vertex="1" parent="WIyWlLk6GJQsqaUBKTNV-1">
          <mxGeometry x="314" y="160" width="140" height="40" as="geometry" />
        </mxCell>
        <mxCell id="cFePoN2Un4Ct-oxJlfI2-43" value="" style="edgeStyle=orthogonalEdgeStyle;rounded=0;orthogonalLoop=1;jettySize=auto;html=1;" edge="1" parent="WIyWlLk6GJQsqaUBKTNV-1" source="cFePoN2Un4Ct-oxJlfI2-4" target="cFePoN2Un4Ct-oxJlfI2-0">
          <mxGeometry relative="1" as="geometry" />
        </mxCell>
        <mxCell id="cFePoN2Un4Ct-oxJlfI2-4" value="fluorescence data&lt;br&gt;*.csv" style="shape=parallelogram;html=1;strokeWidth=2;perimeter=parallelogramPerimeter;whiteSpace=wrap;rounded=1;arcSize=12;size=0.23;spacingTop=4;spacingLeft=8;" vertex="1" parent="WIyWlLk6GJQsqaUBKTNV-1">
          <mxGeometry x="314" y="230" width="140" height="40" as="geometry" />
        </mxCell>
        <mxCell id="cFePoN2Un4Ct-oxJlfI2-25" value="" style="edgeStyle=orthogonalEdgeStyle;rounded=0;orthogonalLoop=1;jettySize=auto;html=1;" edge="1" parent="WIyWlLk6GJQsqaUBKTNV-1" source="cFePoN2Un4Ct-oxJlfI2-6" target="cFePoN2Un4Ct-oxJlfI2-18">
          <mxGeometry relative="1" as="geometry" />
        </mxCell>
        <mxCell id="cFePoN2Un4Ct-oxJlfI2-32" value="" style="edgeStyle=orthogonalEdgeStyle;rounded=0;orthogonalLoop=1;jettySize=auto;html=1;" edge="1" parent="WIyWlLk6GJQsqaUBKTNV-1" source="cFePoN2Un4Ct-oxJlfI2-6" target="cFePoN2Un4Ct-oxJlfI2-24">
          <mxGeometry relative="1" as="geometry" />
        </mxCell>
        <mxCell id="cFePoN2Un4Ct-oxJlfI2-6" value="abs and flu data&lt;br&gt;&amp;nbsp;as *.csv and &lt;br&gt;pandas df" style="strokeWidth=2;html=1;shape=mxgraph.flowchart.direct_data;whiteSpace=wrap;spacingRight=-4;spacingLeft=-22;" vertex="1" parent="WIyWlLk6GJQsqaUBKTNV-1">
          <mxGeometry x="165" y="320" width="115" height="70" as="geometry" />
        </mxCell>
        <mxCell id="cFePoN2Un4Ct-oxJlfI2-10" style="edgeStyle=orthogonalEdgeStyle;rounded=0;orthogonalLoop=1;jettySize=auto;html=1;exitX=0;exitY=0;exitDx=60;exitDy=49;exitPerimeter=0;" edge="1" parent="WIyWlLk6GJQsqaUBKTNV-1">
          <mxGeometry relative="1" as="geometry">
            <mxPoint x="490" y="390" as="targetPoint" />
            <mxPoint x="474" y="379" as="sourcePoint" />
          </mxGeometry>
        </mxCell>
        <mxCell id="cFePoN2Un4Ct-oxJlfI2-18" value="Overarching data plot&amp;nbsp;" style="rounded=1;whiteSpace=wrap;html=1;absoluteArcSize=1;arcSize=14;strokeWidth=2;" vertex="1" parent="WIyWlLk6GJQsqaUBKTNV-1">
          <mxGeometry x="314" y="335" width="100" height="40" as="geometry" />
        </mxCell>
        <mxCell id="cFePoN2Un4Ct-oxJlfI2-34" value="" style="edgeStyle=orthogonalEdgeStyle;rounded=0;orthogonalLoop=1;jettySize=auto;html=1;" edge="1" parent="WIyWlLk6GJQsqaUBKTNV-1" source="cFePoN2Un4Ct-oxJlfI2-24" target="cFePoN2Un4Ct-oxJlfI2-33">
          <mxGeometry relative="1" as="geometry" />
        </mxCell>
        <mxCell id="cFePoN2Un4Ct-oxJlfI2-36" value="" style="edgeStyle=orthogonalEdgeStyle;rounded=0;orthogonalLoop=1;jettySize=auto;html=1;" edge="1" parent="WIyWlLk6GJQsqaUBKTNV-1" source="cFePoN2Un4Ct-oxJlfI2-24" target="cFePoN2Un4Ct-oxJlfI2-35">
          <mxGeometry relative="1" as="geometry" />
        </mxCell>
        <mxCell id="cFePoN2Un4Ct-oxJlfI2-24" value="QY calculation" style="rounded=1;whiteSpace=wrap;html=1;absoluteArcSize=1;arcSize=14;strokeWidth=2;" vertex="1" parent="WIyWlLk6GJQsqaUBKTNV-1">
          <mxGeometry x="172" y="420" width="100" height="40" as="geometry" />
        </mxCell>
        <mxCell id="cFePoN2Un4Ct-oxJlfI2-30" value="" style="edgeStyle=orthogonalEdgeStyle;rounded=0;orthogonalLoop=1;jettySize=auto;html=1;" edge="1" parent="WIyWlLk6GJQsqaUBKTNV-1" source="cFePoN2Un4Ct-oxJlfI2-26" target="cFePoN2Un4Ct-oxJlfI2-0">
          <mxGeometry relative="1" as="geometry" />
        </mxCell>
        <mxCell id="cFePoN2Un4Ct-oxJlfI2-26" value="file names and parameters" style="html=1;strokeWidth=2;shape=manualInput;whiteSpace=wrap;rounded=1;size=26;arcSize=11;spacingTop=16;" vertex="1" parent="WIyWlLk6GJQsqaUBKTNV-1">
          <mxGeometry x="172.5" y="80" width="100" height="60" as="geometry" />
        </mxCell>
        <mxCell id="cFePoN2Un4Ct-oxJlfI2-33" value="Data QC" style="rounded=1;whiteSpace=wrap;html=1;absoluteArcSize=1;arcSize=14;strokeWidth=2;" vertex="1" parent="WIyWlLk6GJQsqaUBKTNV-1">
          <mxGeometry x="310" y="425" width="100" height="30" as="geometry" />
        </mxCell>
        <mxCell id="cFePoN2Un4Ct-oxJlfI2-38" value="" style="edgeStyle=orthogonalEdgeStyle;rounded=0;orthogonalLoop=1;jettySize=auto;html=1;" edge="1" parent="WIyWlLk6GJQsqaUBKTNV-1" source="cFePoN2Un4Ct-oxJlfI2-35" target="cFePoN2Un4Ct-oxJlfI2-37">
          <mxGeometry relative="1" as="geometry" />
        </mxCell>
        <mxCell id="cFePoN2Un4Ct-oxJlfI2-40" value="" style="edgeStyle=orthogonalEdgeStyle;rounded=0;orthogonalLoop=1;jettySize=auto;html=1;" edge="1" parent="WIyWlLk6GJQsqaUBKTNV-1" source="cFePoN2Un4Ct-oxJlfI2-35" target="cFePoN2Un4Ct-oxJlfI2-39">
          <mxGeometry relative="1" as="geometry" />
        </mxCell>
        <mxCell id="cFePoN2Un4Ct-oxJlfI2-35" value="production &lt;br&gt;processing" style="whiteSpace=wrap;html=1;rounded=1;arcSize=14;strokeWidth=2;" vertex="1" parent="WIyWlLk6GJQsqaUBKTNV-1">
          <mxGeometry x="162.5" y="490" width="120" height="60" as="geometry" />
        </mxCell>
        <mxCell id="cFePoN2Un4Ct-oxJlfI2-37" value="data table as *.csv" style="strokeWidth=2;html=1;shape=mxgraph.flowchart.document2;whiteSpace=wrap;size=0.25;spacingBottom=4;" vertex="1" parent="WIyWlLk6GJQsqaUBKTNV-1">
          <mxGeometry x="314" y="485" width="100" height="50" as="geometry" />
        </mxCell>
        <mxCell id="cFePoN2Un4Ct-oxJlfI2-39" value="Representative plot as *.png" style="strokeWidth=2;html=1;shape=mxgraph.flowchart.document2;whiteSpace=wrap;size=0.25;" vertex="1" parent="WIyWlLk6GJQsqaUBKTNV-1">
          <mxGeometry x="165" y="585" width="100" height="60" as="geometry" />
        </mxCell>
      </root>
    </mxGraphModel>
  </diagram>
</mxfile>
